<svg xmlns="http://www.w3.org/2000/svg" xmlns:xlink="http://www.w3.org/1999/xlink" width="536" height="536" viewBox="0 0 536.00001 536.00001"><defs><linearGradient id="b"><stop offset="0" stop-color="#6f0102"/><stop offset="1" stop-color="#6f0102" stop-opacity="0"/></linearGradient><linearGradient id="a"><stop offset="0" stop-color="#e33a4b"/><stop offset="1" stop-color="#d22436" stop-opacity=".549"/></linearGradient><linearGradient xlink:href="#a" id="d" x1="-163.056" y1="973.869" x2="-192.618" y2="870.6" gradientUnits="userSpaceOnUse"/><linearGradient xlink:href="#b" id="c" x1="284.747" y1="974.626" x2="119.19" y2="810.626" gradientUnits="userSpaceOnUse"/></defs><g transform="translate(12 -528.362)"><path d="M256 528.362a268 268 0 0 0-268 268 268 268 0 0 0 86.63 196.856A242 195.44 0 0 1 258 924.648a242 195.44 0 0 1 181.498 66.792A268 268 0 0 0 524 796.362a268 268 0 0 0-268-268z" fill="#212121"/><path d="M258 924.647A242 190 0 0 0 73.572 992.23 268 268 0 0 0 256 1064.363a268 268 0 0 0 184.592-73.88A242 190 0 0 0 258 924.646z" fill="#fff"/><path d="M110.777 827.51c24.815 131.56 99.003 206.72 234.524 186.093-41.298-75.188-.79-112.105 25.704-160.93l-76.434-117.22c-41.755 45.67-72.445 93.71-183.793 92.056z" fill="#212121"/><path d="M118.777 826.088c27.365 121.027 87.203 195.843 212.36 177.703-38.758-70.565 7.002-108.262 31.867-154.085L291.27 739.692c-39.188 42.863-67.99 87.947-172.493 86.396z" fill="#ffb928"/><ellipse cx="317" cy="678.09" rx="76" ry="109" fill="#fff"/><circle r="39.598" cy="686.596" cx="320.583" fill="#212121"/><path d="M135.747 833.16c33.944 116.092 68.82 171.092 179.835 163.56-38.76-70.566 11.243-109.677 36.108-155.5l-59.007-90.214c-39.187 42.862-52.433 83.704-156.936 82.153z" fill="#212121"/><path d="M143.747 834.66c36.337 113.3 58.175 158.344 163.835 157.06-38.76-70.566 12.743-107.177 37.608-153l-58.507-93.214c-39.187 42.862-38.433 90.704-142.936 89.153z" fill="url(#c)"/><ellipse cx="193.144" cy="717.691" rx="103.061" ry="119.036" fill="#212121"/><ellipse ry="119.036" rx="103.061" cy="719.691" cx="183.144" fill="#fff"/><path d="M88.984 820.59c130.918 81.547 262.633 83.232 392.898 64.74L290.932 724.69c-45.54 49.81-80.51 97.7-201.948 95.898z" fill="#212121"/><path d="M118.777 826.088c110.654 64.157 223.52 64.168 336.812 51.838L291.27 739.692c-39.188 42.863-67.99 87.947-172.493 86.396z" fill="#ffb928"/><path transform="matrix(.89327 -.4495 .39773 .9175 0 0)" d="M-132.06 935.08c7.57 37.967-9.355 51.043-26.94 51.043-17.588 0-35.358-27.15-36.746-51.044-2.614-45.01-13.374-57.823-3.092-72.845 9.68-14.142 59.21 34.876 66.78 72.844z" fill="url(#d)"/><path d="M225.307 927.198c9.975 13.58 15.61 16.862 8.61 21.114-7 4.252-5.814-7.98-17.063-20.063-11.25-12.085-57.426-42.508-51.887-50.95 5.54-8.442 50.366 36.317 60.34 49.898z" fill="#750a16" fill-opacity=".549"/><circle cx="189.404" cy="712.223" r="39.598" fill="#212121"/></g></svg>